<?xml version="1.0" encoding="UTF-8" standalone="no"?>
<!DOCTYPE svg PUBLIC "-//W3C//DTD SVG 1.1//EN"
 "http://www.w3.org/Graphics/SVG/1.1/DTD/svg11.dtd">
<!-- Generated by graphviz version 2.38.0 (20140413.2041)
 -->
<!-- Title: %3 Pages: 1 -->
<svg width="604pt" height="479pt"
 viewBox="0.00 0.00 603.77 479.00" xmlns="http://www.w3.org/2000/svg" xmlns:xlink="http://www.w3.org/1999/xlink">
<g id="graph0" class="graph" transform="scale(1 1) rotate(0) translate(4 475)">
<title>%3</title>
<polygon fill="#333333" stroke="none" points="-4,4 -4,-475 599.769,-475 599.769,4 -4,4"/>
<text text-anchor="middle" x="297.884" y="-9.2" font-family="Times New Roman,serif" font-size="16.00" fill="white">Network Map</text>
<!-- R5 -->
<g id="node1" class="node"><title>R5</title>
<polygon fill="#006699" stroke="#006699" points="434.269,-223 357.269,-223 357.269,-150 434.269,-150 434.269,-223"/>
<text text-anchor="middle" x="395.769" y="-182.8" font-family="Helvetica,sans-Serif" font-size="14.00" fill="white">R5</text>
</g>
<!-- R2 -->
<g id="node2" class="node"><title>R2</title>
<polygon fill="#006699" stroke="#006699" points="127.269,-347 50.269,-347 50.269,-274 127.269,-274 127.269,-347"/>
<text text-anchor="middle" x="88.769" y="-306.8" font-family="Helvetica,sans-Serif" font-size="14.00" fill="white">R2</text>
</g>
<!-- SW2 -->
<g id="node3" class="node"><title>SW2</title>
<polygon fill="#006699" stroke="#006699" points="134.269,-471 43.269,-471 43.269,-398 134.269,-398 134.269,-471"/>
<text text-anchor="middle" x="88.769" y="-430.8" font-family="Helvetica,sans-Serif" font-size="14.00" fill="white">SW2</text>
</g>
<!-- R2&#45;&#45;SW2 -->
<g id="edge3" class="edge"><title>R2&#45;&#45;SW2</title>
<path fill="none" stroke="green" stroke-dasharray="5,2" d="M88.769,-347.115C88.769,-363.01 88.769,-381.704 88.769,-397.629"/>
<text text-anchor="middle" x="138.769" y="-368.8" font-family="Courier,monospace" font-size="14.00" fill="white"> &#160;&#160;&#160;&#160;&#160;&#160;&#160;&#160;&#160;&#160;&#160;</text>
<text text-anchor="middle" x="59.769" y="-386.429" font-family="Courier,monospace" font-size="14.00" fill="white">Eth0/11</text>
<text text-anchor="middle" x="63.769" y="-350.915" font-family="Courier,monospace" font-size="14.00" fill="white">Eth0/1</text>
</g>
<!-- SW1 -->
<g id="node5" class="node"><title>SW1</title>
<polygon fill="#006699" stroke="#006699" points="256.269,-223 165.269,-223 165.269,-150 256.269,-150 256.269,-223"/>
<text text-anchor="middle" x="210.769" y="-182.8" font-family="Helvetica,sans-Serif" font-size="14.00" fill="white">SW1</text>
</g>
<!-- R2&#45;&#45;SW1 -->
<g id="edge2" class="edge"><title>R2&#45;&#45;SW1</title>
<path fill="none" stroke="green" stroke-dasharray="5,2" d="M119.607,-273.981C129.342,-263.167 140.295,-251.396 150.769,-241 156.712,-235.101 163.165,-229.028 169.563,-223.187"/>
<text text-anchor="middle" x="200.769" y="-244.8" font-family="Courier,monospace" font-size="14.00" fill="white"> &#160;&#160;&#160;&#160;&#160;&#160;&#160;&#160;&#160;&#160;&#160;</text>
<text text-anchor="middle" x="144.563" y="-226.987" font-family="Courier,monospace" font-size="14.00" fill="white">Eth0/2</text>
<text text-anchor="middle" x="94.6073" y="-262.781" font-family="Courier,monospace" font-size="14.00" fill="white">Eth0/0</text>
</g>
<!-- R4 -->
<g id="node4" class="node"><title>R4</title>
<polygon fill="#006699" stroke="#006699" points="557.269,-223 480.269,-223 480.269,-150 557.269,-150 557.269,-223"/>
<text text-anchor="middle" x="518.769" y="-182.8" font-family="Helvetica,sans-Serif" font-size="14.00" fill="white">R4</text>
</g>
<!-- SW1&#45;&#45;R2 -->
<g id="edge8" class="edge"><title>SW1&#45;&#45;R2</title>
<path fill="none" stroke="green" stroke-dasharray="5,2" d="M165.061,-187.076C123.099,-189.435 62.9999,-200.347 32.769,-241 21.4947,-256.161 33.9819,-272.567 50,-285.521"/>
<text text-anchor="middle" x="82.769" y="-244.8" font-family="Courier,monospace" font-size="14.00" fill="white"> &#160;&#160;&#160;&#160;&#160;&#160;&#160;&#160;&#160;&#160;&#160;</text>
<text text-anchor="middle" x="25" y="-274.321" font-family="Courier,monospace" font-size="14.00" fill="white">Eth0/0</text>
<text text-anchor="middle" x="140.061" y="-175.876" font-family="Courier,monospace" font-size="14.00" fill="white">Eth0/2</text>
</g>
<!-- R1 -->
<g id="node6" class="node"><title>R1</title>
<polygon fill="#006699" stroke="#006699" points="372.269,-347 295.269,-347 295.269,-274 372.269,-274 372.269,-347"/>
<text text-anchor="middle" x="333.769" y="-306.8" font-family="Helvetica,sans-Serif" font-size="14.00" fill="white">R1</text>
</g>
<!-- SW1&#45;&#45;R1 -->
<g id="edge7" class="edge"><title>SW1&#45;&#45;R1</title>
<path fill="none" stroke="green" stroke-dasharray="5,2" d="M239.723,-223.34C248.971,-234.168 259.483,-245.865 269.769,-256 277.609,-263.725 286.434,-271.579 294.969,-278.803"/>
<text text-anchor="middle" x="319.769" y="-244.8" font-family="Courier,monospace" font-size="14.00" fill="white"> &#160;&#160;&#160;&#160;&#160;&#160;&#160;&#160;&#160;&#160;&#160;</text>
<text text-anchor="middle" x="269.969" y="-267.603" font-family="Courier,monospace" font-size="14.00" fill="white">Eth0/0</text>
<text text-anchor="middle" x="214.723" y="-227.14" font-family="Courier,monospace" font-size="14.00" fill="white">Eth0/1</text>
</g>
<!-- R3 -->
<g id="node7" class="node"><title>R3</title>
<polygon fill="#006699" stroke="#006699" points="372.269,-99 295.269,-99 295.269,-26 372.269,-26 372.269,-99"/>
<text text-anchor="middle" x="333.769" y="-58.8" font-family="Helvetica,sans-Serif" font-size="14.00" fill="white">R3</text>
</g>
<!-- SW1&#45;&#45;R3 -->
<g id="edge9" class="edge"><title>SW1&#45;&#45;R3</title>
<path fill="none" stroke="green" stroke-dasharray="5,2" d="M239.723,-149.66C248.971,-138.832 259.483,-127.135 269.769,-117 277.609,-109.275 286.434,-101.421 294.969,-94.1966"/>
<text text-anchor="middle" x="319.769" y="-120.8" font-family="Courier,monospace" font-size="14.00" fill="white"> &#160;&#160;&#160;&#160;&#160;&#160;&#160;&#160;&#160;&#160;&#160;</text>
<text text-anchor="middle" x="269.969" y="-82.9966" font-family="Courier,monospace" font-size="14.00" fill="white">Eth0/0</text>
<text text-anchor="middle" x="214.723" y="-138.46" font-family="Courier,monospace" font-size="14.00" fill="white">Eth0/3</text>
</g>
<!-- R1&#45;&#45;SW1 -->
<g id="edge1" class="edge"><title>R1&#45;&#45;SW1</title>
<path fill="none" stroke="green" stroke-dasharray="5,2" d="M371.134,-273.815C378.125,-262.994 381.201,-251.261 373.769,-241 359.793,-221.703 299.615,-205.628 256.447,-196.287"/>
<text text-anchor="middle" x="427.769" y="-244.8" font-family="Courier,monospace" font-size="14.00" fill="white"> &#160;&#160;&#160;&#160;&#160;&#160;&#160;&#160;&#160;&#160;&#160;</text>
<text text-anchor="middle" x="281.447" y="-185.087" font-family="Courier,monospace" font-size="14.00" fill="white">Eth0/1</text>
<text text-anchor="middle" x="346.134" y="-262.615" font-family="Courier,monospace" font-size="14.00" fill="white">Eth0/0</text>
</g>
<!-- R3&#45;&#45;R5 -->
<g id="edge6" class="edge"><title>R3&#45;&#45;R5</title>
<path fill="none" stroke="green" stroke-dasharray="5,2" d="M363.004,-99.2785C366.944,-105.007 370.684,-111.023 373.769,-117 379.039,-127.212 383.362,-138.931 386.739,-149.755"/>
<text text-anchor="middle" x="429.769" y="-120.8" font-family="Courier,monospace" font-size="14.00" fill="white"> &#160;&#160;&#160;&#160;&#160;&#160;&#160;&#160;&#160;&#160;&#160;</text>
<text text-anchor="middle" x="361.739" y="-138.555" font-family="Courier,monospace" font-size="14.00" fill="white">Eth0/0</text>
<text text-anchor="middle" x="338.004" y="-103.079" font-family="Courier,monospace" font-size="14.00" fill="white">Eth0/2</text>
</g>
<!-- R3&#45;&#45;R4 -->
<g id="edge5" class="edge"><title>R3&#45;&#45;R4</title>
<path fill="none" stroke="green" stroke-dasharray="5,2" d="M372.286,-69.0864C405.229,-75.6107 452.188,-89.2726 483.769,-117 493.704,-125.723 501.19,-137.944 506.634,-149.652"/>
<text text-anchor="middle" x="545.769" y="-120.8" font-family="Courier,monospace" font-size="14.00" fill="white"> &#160;&#160;&#160;&#160;&#160;&#160;&#160;&#160;&#160;&#160;&#160;</text>
<text text-anchor="middle" x="481.634" y="-138.452" font-family="Courier,monospace" font-size="14.00" fill="white">Eth0/0</text>
<text text-anchor="middle" x="397.286" y="-57.8864" font-family="Courier,monospace" font-size="14.00" fill="white">Eth0/1</text>
</g>
<!-- R3&#45;&#45;SW1 -->
<g id="edge4" class="edge"><title>R3&#45;&#45;SW1</title>
<path fill="none" stroke="green" stroke-dasharray="5,2" d="M295.203,-69.2879C246.826,-77.4277 168.09,-93.8903 150.769,-117 140.15,-131.169 150.307,-146.051 165.093,-158.311"/>
<text text-anchor="middle" x="200.769" y="-120.8" font-family="Courier,monospace" font-size="14.00" fill="white"> &#160;&#160;&#160;&#160;&#160;&#160;&#160;&#160;&#160;&#160;&#160;</text>
<text text-anchor="middle" x="140.093" y="-147.111" font-family="Courier,monospace" font-size="14.00" fill="white">Eth0/3</text>
<text text-anchor="middle" x="270.203" y="-58.0879" font-family="Courier,monospace" font-size="14.00" fill="white">Eth0/0</text>
</g>
</g>
</svg>
