<?xml version="1.0" encoding="UTF-8" standalone="no"?>
<!DOCTYPE svg PUBLIC "-//W3C//DTD SVG 1.1//EN"
 "http://www.w3.org/Graphics/SVG/1.1/DTD/svg11.dtd">
<!-- Generated by graphviz version 2.38.0 (20140413.2041)
 -->
<!-- Title: %3 Pages: 1 -->
<svg width="400pt" height="355pt"
 viewBox="0.00 0.00 399.86 355.00" xmlns="http://www.w3.org/2000/svg" xmlns:xlink="http://www.w3.org/1999/xlink">
<g id="graph0" class="graph" transform="scale(1 1) rotate(0) translate(4 351)">
<title>%3</title>
<polygon fill="#333333" stroke="none" points="-4,4 -4,-351 395.861,-351 395.861,4 -4,4"/>
<text text-anchor="middle" x="195.931" y="-9.2" font-family="Times New Roman,serif" font-size="16.00" fill="white">Network Map</text>
<!-- R4 -->
<g id="node1" class="node"><title>R4</title>
<polygon fill="#006699" stroke="#006699" points="84.3611,-347 7.36111,-347 7.36111,-274 84.3611,-274 84.3611,-347"/>
<text text-anchor="middle" x="45.8611" y="-306.8" font-family="Helvetica,sans-Serif" font-size="14.00" fill="white">R4</text>
</g>
<!-- SW2 -->
<g id="node2" class="node"><title>SW2</title>
<polygon fill="#006699" stroke="#006699" points="337.361,-347 246.361,-347 246.361,-274 337.361,-274 337.361,-347"/>
<text text-anchor="middle" x="291.861" y="-306.8" font-family="Helvetica,sans-Serif" font-size="14.00" fill="white">SW2</text>
</g>
<!-- R1 -->
<g id="node3" class="node"><title>R1</title>
<polygon fill="#006699" stroke="#006699" points="84.3611,-223 7.36111,-223 7.36111,-150 84.3611,-150 84.3611,-223"/>
<text text-anchor="middle" x="45.8611" y="-182.8" font-family="Helvetica,sans-Serif" font-size="14.00" fill="white">R1</text>
</g>
<!-- R3 -->
<g id="node4" class="node"><title>R3</title>
<polygon fill="#006699" stroke="#006699" points="207.361,-223 130.361,-223 130.361,-150 207.361,-150 207.361,-223"/>
<text text-anchor="middle" x="168.861" y="-182.8" font-family="Helvetica,sans-Serif" font-size="14.00" fill="white">R3</text>
</g>
<!-- R3&#45;&#45;R4 -->
<g id="edge2" class="edge"><title>R3&#45;&#45;R4</title>
<path fill="none" stroke="green" stroke-dasharray="5,2" d="M130.349,-205.461C102.708,-218.659 69.5392,-235.252 64.8611,-241 57.3047,-250.285 52.7468,-262.368 50,-273.796"/>
<text text-anchor="middle" x="114.861" y="-244.8" font-family="Courier,monospace" font-size="14.00" fill="white"> &#160;&#160;&#160;&#160;&#160;&#160;&#160;&#160;&#160;&#160;&#160;</text>
<text text-anchor="middle" x="25" y="-262.596" font-family="Courier,monospace" font-size="14.00" fill="white">Eth0/0</text>
<text text-anchor="middle" x="105.349" y="-194.261" font-family="Courier,monospace" font-size="14.00" fill="white">Eth0/1</text>
</g>
<!-- R5 -->
<g id="node7" class="node"><title>R5</title>
<polygon fill="#006699" stroke="#006699" points="207.361,-347 130.361,-347 130.361,-274 207.361,-274 207.361,-347"/>
<text text-anchor="middle" x="168.861" y="-306.8" font-family="Helvetica,sans-Serif" font-size="14.00" fill="white">R5</text>
</g>
<!-- R3&#45;&#45;R5 -->
<g id="edge3" class="edge"><title>R3&#45;&#45;R5</title>
<path fill="none" stroke="green" stroke-dasharray="5,2" d="M168.861,-223.115C168.861,-239.01 168.861,-257.704 168.861,-273.629"/>
<text text-anchor="middle" x="218.861" y="-244.8" font-family="Courier,monospace" font-size="14.00" fill="white"> &#160;&#160;&#160;&#160;&#160;&#160;&#160;&#160;&#160;&#160;&#160;</text>
<text text-anchor="middle" x="143.861" y="-262.429" font-family="Courier,monospace" font-size="14.00" fill="white">Eth0/0</text>
<text text-anchor="middle" x="143.861" y="-226.915" font-family="Courier,monospace" font-size="14.00" fill="white">Eth0/2</text>
</g>
<!-- R2 -->
<g id="node5" class="node"><title>R2</title>
<polygon fill="#006699" stroke="#006699" points="330.361,-223 253.361,-223 253.361,-150 330.361,-150 330.361,-223"/>
<text text-anchor="middle" x="291.861" y="-182.8" font-family="Helvetica,sans-Serif" font-size="14.00" fill="white">R2</text>
</g>
<!-- R2&#45;&#45;SW2 -->
<g id="edge1" class="edge"><title>R2&#45;&#45;SW2</title>
<path fill="none" stroke="green" stroke-dasharray="5,2" d="M291.861,-223.115C291.861,-239.01 291.861,-257.704 291.861,-273.629"/>
<text text-anchor="middle" x="341.861" y="-244.8" font-family="Courier,monospace" font-size="14.00" fill="white"> &#160;&#160;&#160;&#160;&#160;&#160;&#160;&#160;&#160;&#160;&#160;</text>
<text text-anchor="middle" x="262.861" y="-262.429" font-family="Courier,monospace" font-size="14.00" fill="white">Eth0/11</text>
<text text-anchor="middle" x="266.861" y="-226.915" font-family="Courier,monospace" font-size="14.00" fill="white">Eth0/1</text>
</g>
<!-- SW1 -->
<g id="node6" class="node"><title>SW1</title>
<polygon fill="#006699" stroke="#006699" points="214.361,-99 123.361,-99 123.361,-26 214.361,-26 214.361,-99"/>
<text text-anchor="middle" x="168.861" y="-58.8" font-family="Helvetica,sans-Serif" font-size="14.00" fill="white">SW1</text>
</g>
<!-- SW1&#45;&#45;R1 -->
<g id="edge4" class="edge"><title>SW1&#45;&#45;R1</title>
<path fill="none" stroke="green" stroke-dasharray="5,2" d="M123.173,-77.5016C102.672,-85.9253 79.7924,-98.6532 64.8611,-117 57.3047,-126.285 52.7468,-138.368 50,-149.796"/>
<text text-anchor="middle" x="114.861" y="-120.8" font-family="Courier,monospace" font-size="14.00" fill="white"> &#160;&#160;&#160;&#160;&#160;&#160;&#160;&#160;&#160;&#160;&#160;</text>
<text text-anchor="middle" x="25" y="-138.596" font-family="Courier,monospace" font-size="14.00" fill="white">Eth0/0</text>
<text text-anchor="middle" x="98.1733" y="-66.3016" font-family="Courier,monospace" font-size="14.00" fill="white">Eth0/1</text>
</g>
<!-- SW1&#45;&#45;R3 -->
<g id="edge6" class="edge"><title>SW1&#45;&#45;R3</title>
<path fill="none" stroke="green" stroke-dasharray="5,2" d="M168.861,-99.1154C168.861,-115.01 168.861,-133.704 168.861,-149.629"/>
<text text-anchor="middle" x="218.861" y="-120.8" font-family="Courier,monospace" font-size="14.00" fill="white"> &#160;&#160;&#160;&#160;&#160;&#160;&#160;&#160;&#160;&#160;&#160;</text>
<text text-anchor="middle" x="143.861" y="-138.429" font-family="Courier,monospace" font-size="14.00" fill="white">Eth0/0</text>
<text text-anchor="middle" x="143.861" y="-102.915" font-family="Courier,monospace" font-size="14.00" fill="white">Eth0/3</text>
</g>
<!-- SW1&#45;&#45;R2 -->
<g id="edge5" class="edge"><title>SW1&#45;&#45;R2</title>
<path fill="none" stroke="green" stroke-dasharray="5,2" d="M214.463,-78.7266C233.909,-87.262 255.4,-99.7342 269.861,-117 277.641,-126.288 282.683,-138.373 285.946,-149.8"/>
<text text-anchor="middle" x="328.861" y="-120.8" font-family="Courier,monospace" font-size="14.00" fill="white"> &#160;&#160;&#160;&#160;&#160;&#160;&#160;&#160;&#160;&#160;&#160;</text>
<text text-anchor="middle" x="260.946" y="-138.6" font-family="Courier,monospace" font-size="14.00" fill="white">Eth0/0</text>
<text text-anchor="middle" x="239.463" y="-67.5266" font-family="Courier,monospace" font-size="14.00" fill="white">Eth0/2</text>
</g>
</g>
</svg>
